<?xml version="1.0" encoding="UTF-8"?>
<svg id="Livello_1" xmlns="http://www.w3.org/2000/svg" version="1.1" viewBox="0 0 141.73 56.69">
  <!-- Generator: Adobe Illustrator 29.5.0, SVG Export Plug-In . SVG Version: 2.1.0 Build 137)  -->
  <defs>
    <style>
      .st0 {
        fill: #1359a6;
      }

      .st0, .st1 {
        fill-rule: evenodd;
      }

      .st2 {
        fill: #0759a4;
      }

      .st1, .st3 {
        fill: #fbd913;
      }
    </style>
  </defs>
  <g>
    <path class="st0" d="M141.71,56.69H.03V0h141.7v56.69h-.02,0Z"/>
    <path class="st1" d="M2.63,28.35c0,13.94,28.59,25.51,68.22,25.51s68.2-11.58,68.2-25.51S110.46,2.83,70.85,2.83,2.63,14.41,2.63,28.35Z"/>
    <path class="st2" d="M69.81,36.92c.41.63.86,1.23,1.38,1.76h-14.07c0-.59-.54-1.8-1.14-2.76-.6-.95-3.82-6.17-3.82-6.17v7.16c0,.59,0,1.17.28,1.76h-11.72c.28-.59.28-1.17.28-1.76v-17.01c0-.59,0-1.17-.28-1.76h11.72c-.28.59-.28,1.17-.28,1.76v7.44s3.75-5.2,4.6-6.4c.65-.91,1.45-2.2,1.45-2.8h12.22c-.84.59-1.77,1.67-2.53,2.66-.67.87-4.47,5.81-4.47,5.81,0,0,5.63,9.14,6.37,10.31h.01ZM73.5,19.9v17.01c0,.59,0,1.17-.28,1.76h22.62v-5.71c-.56.3-1.1.3-1.66.3h-9.52v-2.7h9.15v-4.32h-9.15v-2.72h9.52c.56,0,1.1,0,1.66.28v-5.69h-22.62c.28.61.28,1.19.28,1.78h0ZM127.18,36.92c.19.65.5,1.25.91,1.76h-12.26c.06-.59-.15-1.17-.37-1.76,0,0-.19-.48-.45-1.17l-.11-.3h-7.06l-.11.32s-.21.58-.39,1.17-.39,1.17-.32,1.76h-9.67c.4-.52.69-1.12.88-1.76l5.79-17.01c.21-.59.41-1.17.34-1.76h16.34c-.15.59.15,1.17.35,1.76.48,1.29,5.72,15.84,6.13,16.99ZM113.35,31.11l-1.71-4.76c-.15-.44-.28-.89-.37-1.35-.07.46-.19.91-.34,1.35-.06.2-.78,2.28-1.62,4.76h4.04Z"/>
  </g>
  <path class="st2" d="M35.71,27.86c1.05-1.03,1.71-2.36,1.71-3.82,0-3.24-3.12-5.86-6.98-5.91h-15.87c.36.6.36,1.17.36,1.77v17.03c0,.6,0,1.17-.36,1.77h16.64c4.43,0,8.02-2.65,8.02-5.92,0-2.04-1.4-3.84-3.53-4.9v-.02Z"/>
  <path class="st3" d="M24.5,23.16h.47c1.19,0,2.16.7,2.16,1.56v.06c0,.86-.96,1.55-2.15,1.55h-.47v-3.17h-.01Z"/>
  <path class="st3" d="M24.5,30h1.01c1.21,0,2.19.77,2.19,1.71v.03c0,.94-.98,1.72-2.2,1.72h-1v-3.45h0Z"/>
</svg>