<svg width="83" height="32" viewBox="0 0 83 32" fill="none" xmlns="http://www.w3.org/2000/svg">
  <path d="M29.183 18.018l1.255-.66c.557 1.105 1.419 1.641 2.584 1.641 1.142 0 1.913-.369 1.913-1.22 0-.814-.584-1.196-2.13-1.655-1.812-.533-3.27-1.032-3.27-2.825 0-1.602 1.304-2.66 3.207-2.66 1.85 0 2.941.915 3.512 2.024l-1.152.8c-.558-.941-1.356-1.373-2.37-1.373-1.04 0-1.636.382-1.636 1.069 0 .877.67 1.17 2.206 1.628 1.773.523 3.195 1.106 3.195 2.875 0 1.539-1.306 2.748-3.536 2.748-1.863 0-3.181-.968-3.778-2.392zm8.037.586c0-1.464 1.243-2.443 4.387-2.798V15.6c0-.673-.354-.965-1.102-.965-.938 0-1.699.459-2.27.915l-.76-.979c.723-.66 1.85-1.22 3.244-1.22 1.8 0 2.42.865 2.42 2.443v2.788c0 .814.051 1.31.191 1.655h-1.572c-.09-.279-.154-.483-.154-.865-.684.7-1.482.968-2.483.968-1.09-.008-1.9-.618-1.9-1.737zm4.387-.255v-1.488c-1.863.255-2.851.714-2.851 1.451 0 .533.367.814.938.814.798-.002 1.419-.307 1.913-.777zm3.703 1.881v-5.507h-1.166v-1.247h1.166v-.687c0-1.132.47-2.01 2.18-2.01.29 0 .811.05.925.063v1.21a2.79 2.79 0 00-.531-.05c-.558 0-1.015.153-1.015.877v.597h1.47v1.247h-1.47v5.509h-1.56v-.003zm3.588-3.37c0-2.57 1.812-3.512 3.207-3.512 1.51 0 2.955.904 2.955 3.652v.369h-4.6c.063 1.22.81 1.756 1.799 1.756.874 0 1.382-.292 1.889-.788l.824.814c-.697.777-1.622 1.22-2.827 1.22-1.689 0-3.248-1.029-3.248-3.512zm4.727-.661c-.09-1.032-.595-1.578-1.533-1.578-.76 0-1.459.432-1.61 1.578h3.143z" fill="#474C55"/>
  <path d="M56.452 20.23v-9.417h1.115v4.862l4.247-4.859h1.342l-3.218 3.589 3.662 5.827h-1.282L59.2 15.26l-1.635 1.793v3.18h-1.113v-.002zm7.468-3.358c0-2.443 1.623-3.498 3.029-3.498 1.585 0 2.787 1.119 2.787 3.548v.229h-4.724c.037 1.514.911 2.328 2.016 2.328.962 0 1.509-.395 2.016-1.092l.634.56c-.62.89-1.469 1.424-2.724 1.424-1.588 0-3.034-1.157-3.034-3.499zm4.78-.573c-.09-1.196-.657-2.01-1.762-2.01-.901 0-1.75.623-1.903 2.01h3.666zm1.535 6.35l.254-.878c.19.05.52.114.988.114.684 0 1.014-.292 1.279-.955l.253-.66-2.584-6.756h1.152l1.963 5.432h.027l1.966-5.432h1.102l-2.865 7.482c-.457 1.183-.975 1.82-2.28 1.82-.597-.003-.965-.08-1.255-.167zM77 14.47a.993.993 0 011.006-1.011c.56 0 .994.434.994 1.002a.994.994 0 01-1.007 1.01.98.98 0 01-.994-1.002zm1.796 0c0-.468-.343-.823-.803-.823-.452 0-.79.347-.79.814 0 .467.338.82.803.82.452 0 .79-.345.79-.812zm-1.192-.574h.426c.264 0 .42.117.42.36 0 .17-.074.264-.196.32l.217.418h-.277l-.196-.387h-.13v.387h-.264v-1.098zm.407.512c.117 0 .183-.04.183-.14 0-.096-.066-.141-.183-.141h-.142v.278h.142v.003z" fill="#878A8F"/>
  <path d="M22.975 25.047H4V6h18.975v19.046z" fill="#fff"/>
  <path d="M22.24 19.686h-6.389l-.351-.459v.46h-1.467v-.868a1.855 1.855 0 01-.695.127h-.079v.74h-2.08l-.327-.461-.32.461h-3.35v-3.315h3.366l.322.45.323-.45h11.782V6H4v7.456l.65-1.523H6l.302.698v-.695h1.67l.211.602.209-.602h7.182v.268c.27-.183.605-.268.962-.268h2.222l.301.698v-.698h1.364l.317.517v-.517h1.482v3.316h-1.4l-.296-.489v.489h-2.048l-.19-.489h-.4l-.182.489h-1.205c-.296 0-.64-.056-.927-.244v.244h-2.056l-.351-.46v.46H5.72l-.19-.489h-.396l-.185.489h-.946v9.798h18.975v-5.56a1.407 1.407 0 01-.737.196z" fill="#006FCF"/>
  <path d="M22.254 18.697h-1.165v.478h1.146c.495 0 .788-.303.788-.727 0-.414-.267-.655-.71-.655h-.519c-.134 0-.227-.088-.227-.22 0-.128.095-.213.227-.213h.98l.212-.477h-1.17c-.49 0-.788.302-.788.713 0 .428.28.666.71.666h.519c.134 0 .227.085.227.223-.003.127-.098.212-.23.212zm-2.103 0h-1.166v.478h1.147c.494 0 .788-.303.788-.727 0-.414-.267-.655-.711-.655h-.518c-.135 0-.227-.088-.227-.22 0-.128.095-.213.227-.213h.98l.212-.477h-1.171c-.489 0-.788.302-.788.713 0 .428.28.666.711.666h.518c.135 0 .228.085.228.223 0 .127-.096.212-.23.212zm-1.47-1.342v-.472h-1.818v2.294h1.818v-.464h-1.279v-.456h1.25v-.462h-1.25v-.437h1.28v-.003zm-2.954.005c.196 0 .293.117.293.263 0 .143-.097.263-.293.263h-.647v-.526h.647zm-.645.974h.254l.695.84h.671l-.753-.861c.386-.072.613-.348.613-.711 0-.422-.301-.722-.787-.722H14.54v2.295h.539v-.841h.002zm-1.382-.682c0 .157-.097.284-.293.284h-.663v-.576h.663c.196 0 .293.128.293.292zm-1.495-.769v2.294h.539v-.76h.692c.5 0 .806-.33.806-.767 0-.457-.301-.767-.787-.767h-1.25zm-.78 2.294h.671l-.92-1.156.915-1.138h-.652l-.569.743-.565-.743h-.671l.917 1.146-.915 1.146h.653l.568-.75.568.752zm-1.892-1.822v-.472H7.715v2.294h1.818v-.464H8.254v-.456h1.25v-.462h-1.25v-.437h1.28v-.003zm10.502-3.891l-.016-.385.219.374.803 1.284h.624v-2.294h-.51v1.22l.016.387-.222-.38-.774-1.225h-.656v2.295h.516v-1.276zm-2.154-.186l.166-.448.17.448.224.557h-.782l.222-.557zm.922 1.462h.6l-.975-2.295h-.71l-.981 2.295h.557l.193-.486h1.12l.196.486zm-2.375 0h.026l.222-.483h-.164c-.378 0-.6-.236-.6-.65v-.032c0-.371.204-.644.595-.644h.586v-.486h-.628c-.703 0-1.092.475-1.092 1.125v.045c0 .676.394 1.12 1.055 1.125zm-1.927 0h.54v-2.292h-.54v2.292zm-1.136-1.815c.196 0 .293.12.293.263 0 .143-.097.263-.293.263h-.647v-.526h.647zm-.645.974h.254l.695.84h.671l-.753-.861c.386-.072.613-.348.613-.711 0-.422-.301-.722-.787-.722h-1.234v2.295h.539v-.841h.002zm-.917-.981v-.473H9.985v2.295h1.818v-.464h-1.279v-.457h1.25v-.461h-1.25v-.44h1.28zm-4.513.318l-.018-.528.166.528.481 1.504h.5l.483-1.504.166-.53-.018.53-.005 1.504h.502v-2.295h-.849l-.388 1.202-.14.514-.14-.514-.388-1.202H6.79v2.295h.51l-.01-1.504zm-2.14.042l.166-.448.17.448.224.557h-.782l.222-.557zm.925 1.462h.6l-.976-2.295h-.71l-.98 2.295h.557l.193-.486h1.12l.196.486z" fill="#006FCF"/>
</svg>
